<svg width="60" height="36" viewBox="0 0 60 36" fill="none" xmlns="http://www.w3.org/2000/svg">
<rect x="0.5" y="0.5" width="59" height="35" rx="5.5" fill="white" stroke="#D4D8DA"/>
<g clip-path="url(#clip0_4238_920)">
<path d="M16.8008 4.80017H43.1352V19.0517L41.8317 21.0934L43.1352 22.9106V31.2002H16.8008V17.7654L17.6155 16.8262L16.8008 15.9278V4.80017Z" fill="#016FD0"/>
<path d="M21.9121 23.1963V19.0515H26.2898L26.7594 19.6653L27.2446 19.0515H43.1345V22.9104C43.1345 22.9104 42.7189 23.1921 42.2383 23.1963H33.4398L32.9103 22.5429V23.1963H31.175V22.081C31.175 22.081 30.938 22.2367 30.4255 22.2367H29.8348V23.1963H27.2075L26.7385 22.5693L26.2623 23.1963H21.9121Z" fill="white"/>
<path d="M16.8008 15.9276L17.788 13.6204H19.4952L20.0554 14.9128V13.6204H22.1777L22.5112 14.5545L22.8345 13.6204H32.3611V14.09C32.3611 14.09 32.8619 13.6204 33.685 13.6204L36.776 13.6313L37.3266 14.9067V13.6204H39.1026L39.5914 14.3531V13.6204H41.3837V17.7652H39.5914L39.1229 17.0302V17.7652H36.5136L36.2512 17.1118H35.5497L35.2916 17.7652H33.522C32.8138 17.7652 32.3611 17.3052 32.3611 17.3052V17.7652H29.6931L29.1635 17.1118V17.7652H19.2423L18.98 17.1118H18.2808L18.0204 17.7652H16.8008V15.9276Z" fill="white"/>
<path d="M18.1381 14.1314L16.8066 17.2349H17.6735L17.9192 16.6134H19.3474L19.5918 17.2349H20.4778L19.1476 14.1314H18.1381ZM18.6308 14.8537L19.0661 15.9396H18.1941L18.6308 14.8537Z" fill="#016FD0"/>
<path d="M20.5684 17.2343V14.1309L21.8002 14.1354L22.5167 16.1364L23.2161 14.1309H24.4381V17.2343H23.6641V14.9476L22.8437 17.2343H22.165L21.3423 14.9476V17.2343H20.5684Z" fill="#016FD0"/>
<path d="M24.9688 17.2343V14.1309H27.4943V14.8251H25.7508V15.3559H27.4535V16.0093H25.7508V16.5606H27.4943V17.2343H24.9688Z" fill="#016FD0"/>
<path d="M27.9414 14.1314V17.2349H28.7154V16.1323H29.0412L29.9692 17.2349H30.915L29.8966 16.0915C30.3146 16.0561 30.7457 15.6965 30.7457 15.1382C30.7457 14.4851 30.2344 14.1314 29.6637 14.1314H27.9414ZM28.7154 14.8256H29.6C29.8123 14.8256 29.9667 14.992 29.9667 15.1523C29.9667 15.3584 29.7666 15.4789 29.6115 15.4789H28.7154V14.8256Z" fill="#016FD0"/>
<path d="M31.8527 17.2343H31.0625V14.1309H31.8527V17.2343Z" fill="#016FD0"/>
<path d="M33.7255 17.2343H33.5549C32.7296 17.2343 32.2285 16.5825 32.2285 15.6954C32.2285 14.7863 32.724 14.1309 33.7662 14.1309H34.6216V14.8659H33.7349C33.3119 14.8659 33.0126 15.1969 33.0126 15.703C33.0126 16.304 33.3548 16.5565 33.8477 16.5565H34.0514L33.7255 17.2343Z" fill="#016FD0"/>
<path d="M35.4096 14.1314L34.0781 17.2349H34.945L35.1907 16.6134H36.6189L36.8633 17.2349H37.7493L36.419 14.1314H35.4096ZM35.9022 14.8537L36.3376 15.9396H35.4656L35.9022 14.8537Z" fill="#016FD0"/>
<path d="M37.8398 17.2343V14.1309H38.8238L40.0802 16.0807V14.1309H40.8542V17.2343H39.902L38.6138 15.2334V17.2343H37.8398Z" fill="#016FD0"/>
<path d="M22.4434 22.6654V19.562H24.9689V20.2562H23.2254V20.787H24.9281V21.4404H23.2254V21.9916H24.9689V22.6654H22.4434Z" fill="#016FD0"/>
<path d="M34.8164 22.6654V19.562H37.3419V20.2562H35.5985V20.787H37.293V21.4404H35.5985V21.9916H37.3419V22.6654H34.8164Z" fill="#016FD0"/>
<path d="M25.0664 22.6654L26.296 21.1328L25.0371 19.562H26.0122L26.7619 20.5331L27.5142 19.562H28.4511L27.2087 21.1137L28.4407 22.6654H27.4657L26.7377 21.7096L26.0275 22.6654H25.0664Z" fill="#016FD0"/>
<path d="M28.5312 19.5625V22.6659H29.3256V21.6859H30.1402C30.8296 21.6859 31.3521 21.3193 31.3521 20.6063C31.3521 20.0157 30.9423 19.5625 30.2408 19.5625H28.5312ZM29.3256 20.2643H30.1835C30.4062 20.2643 30.5654 20.4012 30.5654 20.6216C30.5654 20.8288 30.407 20.9789 30.181 20.9789H29.3256V20.2643Z" fill="#016FD0"/>
<path d="M31.6895 19.562V22.6654H32.4634V21.5629H32.7893L33.7172 22.6654H34.663L33.6447 21.522C34.0626 21.4867 34.4937 21.1271 34.4937 20.5688C34.4937 19.9157 33.9824 19.562 33.4117 19.562H31.6895ZM32.4634 20.2562H33.3481C33.5603 20.2562 33.7147 20.4226 33.7147 20.5828C33.7147 20.789 33.5147 20.9095 33.3595 20.9095H32.4634V20.2562Z" fill="#016FD0"/>
<path d="M37.7018 22.6654V21.9916H39.2507C39.4799 21.9916 39.5791 21.8675 39.5791 21.7313C39.5791 21.6009 39.4802 21.469 39.2507 21.469H38.5508C37.9424 21.469 37.6035 21.0974 37.6035 20.5394C37.6035 20.0418 37.9138 19.562 38.8179 19.562H40.325L39.9992 20.2602H38.6957C38.4465 20.2602 38.3698 20.3913 38.3698 20.5165C38.3698 20.6451 38.4646 20.787 38.655 20.787H39.3882C40.0664 20.787 40.3607 21.1727 40.3607 21.6777C40.3607 22.2207 40.0327 22.6654 39.3512 22.6654H37.7018Z" fill="#016FD0"/>
<path d="M40.5416 22.6654V21.9916H42.0905C42.3197 21.9916 42.419 21.8675 42.419 21.7313C42.419 21.6009 42.32 21.469 42.0905 21.469H41.3906C40.7822 21.469 40.4434 21.0974 40.4434 20.5394C40.4434 20.0418 40.7537 19.562 41.6577 19.562H43.1649L42.839 20.2602H41.5355C41.2864 20.2602 41.2097 20.3913 41.2097 20.5165C41.2097 20.6451 41.3045 20.787 41.4948 20.787H42.228C42.9062 20.787 43.2005 21.1727 43.2005 21.6777C43.2005 22.2207 42.8726 22.6654 42.1911 22.6654H40.5416Z" fill="#016FD0"/>
</g>
<defs>
<clipPath id="clip0_4238_920">
<rect width="26.4" height="26.4" fill="white" transform="translate(16.8008 4.79999)"/>
</clipPath>
</defs>
</svg>
