<svg width="60" height="36" viewBox="0 0 60 36" fill="none" xmlns="http://www.w3.org/2000/svg">
<rect x="0.5" y="0.5" width="59" height="35" rx="5.5" fill="white" stroke="#D4D8DA"/>
<g clip-path="url(#clip0_7970_2292)">
<path d="M46.1116 30.8419V30.9105H46.1744C46.1883 30.9105 46.2001 30.9072 46.2087 30.9019C46.2166 30.8965 46.2213 30.8872 46.2213 30.8759C46.2213 30.8645 46.2166 30.8559 46.2087 30.8505C46.2001 30.8445 46.1883 30.8419 46.1744 30.8419H46.1116ZM46.175 30.7938C46.2074 30.7938 46.2325 30.8012 46.2503 30.8158C46.2682 30.8305 46.2767 30.8505 46.2767 30.8759C46.2767 30.8972 46.2701 30.9145 46.2556 30.9286C46.2417 30.9419 46.2219 30.9506 46.1955 30.9539L46.2787 31.0506H46.214L46.1367 30.9546H46.1116V31.0506H46.0575V30.7938H46.175ZM46.1585 31.1393C46.1883 31.1393 46.216 31.1333 46.2411 31.122C46.2668 31.1106 46.2893 31.0953 46.3084 31.0759C46.3276 31.0566 46.3428 31.0339 46.354 31.0072C46.3646 30.9812 46.3705 30.9532 46.3705 30.9232C46.3705 30.8932 46.3646 30.8652 46.354 30.8392C46.3428 30.8132 46.3276 30.7898 46.3084 30.7705C46.2893 30.7512 46.2668 30.7358 46.2411 30.7245C46.216 30.7138 46.1883 30.7085 46.1585 30.7085C46.1288 30.7085 46.1004 30.7138 46.0747 30.7245C46.0483 30.7358 46.0251 30.7512 46.006 30.7705C45.9868 30.7898 45.9716 30.8132 45.9611 30.8392C45.9499 30.8652 45.9446 30.8932 45.9446 30.9232C45.9446 30.9532 45.9499 30.9812 45.9611 31.0072C45.9716 31.0339 45.9868 31.0566 46.006 31.0759C46.0251 31.0953 46.0483 31.1106 46.0747 31.122C46.1004 31.1333 46.1288 31.1393 46.1585 31.1393ZM46.1585 30.6465C46.1975 30.6465 46.2332 30.6538 46.2675 30.6685C46.3012 30.6825 46.3302 30.7025 46.356 30.7278C46.3811 30.7525 46.4009 30.7818 46.4154 30.8158C46.43 30.8492 46.4372 30.8852 46.4372 30.9232C46.4372 30.9612 46.43 30.9972 46.4154 31.0306C46.4009 31.0639 46.3811 31.0933 46.356 31.1186C46.3302 31.1433 46.3012 31.1633 46.2675 31.178C46.2332 31.1926 46.1975 31.2 46.1585 31.2C46.1189 31.2 46.0826 31.1926 46.0483 31.178C46.0139 31.1633 45.9842 31.1433 45.9591 31.1186C45.934 31.0933 45.9142 31.0639 45.8997 31.0306C45.8851 30.9972 45.8779 30.9612 45.8779 30.9232C45.8779 30.8852 45.8851 30.8492 45.8997 30.8158C45.9142 30.7818 45.934 30.7525 45.9591 30.7278C45.9842 30.7025 46.0139 30.6825 46.0483 30.6685C46.0826 30.6538 46.1189 30.6465 46.1585 30.6465ZM20.4296 29.6574C20.4296 29.1679 20.7473 28.7658 21.2663 28.7658C21.7622 28.7658 22.0971 29.1506 22.0971 29.6574C22.0971 30.1643 21.7622 30.5491 21.2663 30.5491C20.7473 30.5491 20.4296 30.1469 20.4296 29.6574ZM22.6623 29.6574V28.2649H22.0627V28.6031C21.8725 28.3523 21.5839 28.1949 21.1917 28.1949C20.4184 28.1949 19.8122 28.8071 19.8122 29.6574C19.8122 30.5084 20.4184 31.12 21.1917 31.12C21.5839 31.12 21.8725 30.9626 22.0627 30.7118V31.0499H22.6623V29.6574ZM42.9253 29.6574C42.9253 29.1679 43.243 28.7658 43.762 28.7658C44.2586 28.7658 44.5928 29.1506 44.5928 29.6574C44.5928 30.1643 44.2586 30.5491 43.762 30.5491C43.243 30.5491 42.9253 30.1469 42.9253 29.6574ZM45.1587 29.6574V27.1466H44.5584V28.6031C44.3683 28.3523 44.0797 28.1949 43.6874 28.1949C42.9141 28.1949 42.3079 28.8071 42.3079 29.6574C42.3079 30.5084 42.9141 31.12 43.6874 31.12C44.0797 31.12 44.3683 30.9626 44.5584 30.7118V31.0499H45.1587V29.6574ZM30.1054 28.7371C30.4918 28.7371 30.7401 28.9819 30.8035 29.4127H29.3724C29.4365 29.0105 29.6782 28.7371 30.1054 28.7371ZM30.1173 28.1949C29.309 28.1949 28.7437 28.7891 28.7437 29.6574C28.7437 30.5431 29.3321 31.12 30.1576 31.12C30.573 31.12 30.9534 31.0153 31.2882 30.7298L30.9943 30.281C30.7632 30.4671 30.4687 30.5724 30.192 30.5724C29.8056 30.5724 29.4537 30.3917 29.3671 29.8902H31.415C31.4209 29.8148 31.4269 29.7388 31.4269 29.6574C31.4209 28.7891 30.89 28.1949 30.1173 28.1949ZM37.3577 29.6574C37.3577 29.1679 37.6753 28.7658 38.1944 28.7658C38.6903 28.7658 39.0252 29.1506 39.0252 29.6574C39.0252 30.1643 38.6903 30.5491 38.1944 30.5491C37.6753 30.5491 37.3577 30.1469 37.3577 29.6574ZM39.5904 29.6574V28.2649H38.9908V28.6031C38.8 28.3523 38.512 28.1949 38.1198 28.1949C37.3465 28.1949 36.7402 28.8071 36.7402 29.6574C36.7402 30.5084 37.3465 31.12 38.1198 31.12C38.512 31.12 38.8 30.9626 38.9908 30.7118V31.0499H39.5904V29.6574ZM33.9713 29.6574C33.9713 30.5024 34.5537 31.12 35.4426 31.12C35.858 31.12 36.1347 31.0266 36.4345 30.7878L36.1466 30.2983C35.9214 30.4617 35.685 30.5491 35.4248 30.5491C34.946 30.5431 34.594 30.1936 34.594 29.6574C34.594 29.1213 34.946 28.7718 35.4248 28.7658C35.685 28.7658 35.9214 28.8532 36.1466 29.0165L36.4345 28.527C36.1347 28.2883 35.858 28.1949 35.4426 28.1949C34.5537 28.1949 33.9713 28.8125 33.9713 29.6574ZM41.7023 28.1949C41.3563 28.1949 41.1311 28.3583 40.9752 28.6031V28.2649H40.3809V31.0499H40.9812V29.4887C40.9812 29.0279 41.1773 28.7718 41.5696 28.7718C41.6911 28.7718 41.8179 28.7891 41.9447 28.8418L42.1296 28.271C41.9968 28.2183 41.8238 28.1949 41.7023 28.1949ZM25.6281 28.4864C25.3395 28.2943 24.942 28.1949 24.5035 28.1949C23.8048 28.1949 23.3551 28.533 23.3551 29.0866C23.3551 29.5407 23.6899 29.8208 24.3067 29.9082L24.59 29.9489C24.9188 29.9956 25.074 30.0829 25.074 30.2403C25.074 30.4557 24.8548 30.5784 24.4454 30.5784C24.03 30.5784 23.7302 30.4444 23.5281 30.287L23.2455 30.7585C23.5743 31.0032 23.9897 31.12 24.4394 31.12C25.2358 31.12 25.6974 30.7412 25.6974 30.211C25.6974 29.7215 25.3342 29.4654 24.7339 29.378L24.4513 29.3367C24.1918 29.302 23.9838 29.25 23.9838 29.0632C23.9838 28.8592 24.1799 28.7371 24.5088 28.7371C24.8607 28.7371 25.2015 28.8712 25.3686 28.9759L25.6281 28.4864ZM33.3651 28.1949C33.019 28.1949 32.7938 28.3583 32.6386 28.6031V28.2649H32.0443V31.0499H32.6439V29.4887C32.6439 29.0279 32.8401 28.7718 33.2323 28.7718C33.3538 28.7718 33.4806 28.7891 33.6074 28.8418L33.7923 28.271C33.6596 28.2183 33.4866 28.1949 33.3651 28.1949ZM28.2478 28.2649H27.2671V27.42H26.6609V28.2649H26.1016V28.8185H26.6609V30.0889C26.6609 30.7352 26.9092 31.12 27.6185 31.12C27.8787 31.12 28.1785 31.0386 28.3687 30.9045L28.1956 30.3857C28.0167 30.4904 27.8205 30.5431 27.6647 30.5431C27.3649 30.5431 27.2671 30.3564 27.2671 30.0769V28.8185H28.2478V28.2649ZM19.2819 31.0499V29.302C19.2819 28.6437 18.8665 28.2009 18.1969 28.1949C17.8449 28.1889 17.4817 28.2996 17.2274 28.6904C17.0373 28.3817 16.7374 28.1949 16.3161 28.1949C16.0216 28.1949 15.7337 28.2823 15.5085 28.6084V28.2649H14.9082V31.0499H15.5138V29.5061C15.5138 29.0225 15.7792 28.7658 16.1893 28.7658C16.5875 28.7658 16.789 29.0279 16.789 29.5001V31.0499H17.3952V29.5061C17.3952 29.0225 17.6719 28.7658 18.0701 28.7658C18.4795 28.7658 18.6756 29.0279 18.6756 29.5001V31.0499H19.2819Z" fill="#231F20"/>
<path d="M46.4822 21.788V21.3813H46.3772L46.2557 21.6607L46.1349 21.3813H46.0293V21.788H46.1039V21.4813L46.2174 21.746H46.2947L46.4082 21.4806V21.788H46.4822ZM45.816 21.788V21.4506H45.9507V21.382H45.6074V21.4506H45.7421V21.788H45.816Z" fill="#F79410"/>
<path d="M34.5429 23.5379H25.4551V7.04413H34.5429V23.5379Z" fill="#FF5F00"/>
<path d="M26.0369 15.2897C26.0369 11.9438 27.5882 8.96344 30.0038 7.04276C28.2373 5.63827 26.0079 4.79997 23.585 4.79997C17.8489 4.79997 13.1992 9.49629 13.1992 15.2897C13.1992 21.083 17.8489 25.7794 23.585 25.7794C26.0079 25.7794 28.2373 24.9411 30.0038 23.5366C27.5882 21.6159 26.0369 18.6355 26.0369 15.2897Z" fill="#EB001B"/>
<path d="M46.7994 15.2897C46.7994 21.083 42.1497 25.7794 36.4137 25.7794C33.9907 25.7794 31.7613 24.9411 29.9941 23.5366C32.4105 21.6159 33.9617 18.6355 33.9617 15.2897C33.9617 11.9438 32.4105 8.96344 29.9941 7.04276C31.7613 5.63827 33.9907 4.79997 36.4137 4.79997C42.1497 4.79997 46.7994 9.49629 46.7994 15.2897Z" fill="#F79E1B"/>
</g>
<defs>
<clipPath id="clip0_7970_2292">
<rect width="33.6" height="26.4" fill="white" transform="translate(13.1992 4.79999)"/>
</clipPath>
</defs>
</svg>
