<svg width="60" height="36" viewBox="0 0 60 36" fill="none" xmlns="http://www.w3.org/2000/svg">
<rect x="0.5" y="0.5" width="59" height="35" rx="5.5" fill="white" stroke="#D4D8DA"/>
<g clip-path="url(#clip0_7970_2288)">
<path d="M23.9369 9.89579L17.3375 26.1435H13.0326L9.78528 13.1732C9.58917 12.3768 9.41688 12.0835 8.81824 11.7467C7.83849 11.1977 6.22198 10.6816 4.80078 10.3645L4.89606 9.89579H11.8266C12.7095 9.89579 13.5034 10.5021 13.7051 11.5509L15.4208 20.957L19.6582 9.89579H23.9369ZM40.8046 20.8391C40.8229 16.5514 35.0611 16.3138 35.1 14.3981C35.1127 13.8156 35.6502 13.1961 36.8269 13.0372C37.4104 12.9594 39.019 12.8971 40.8435 13.764L41.5581 10.3178C40.339 9.8473 39.0486 9.60426 37.7471 9.60001C33.7209 9.60001 30.888 11.8065 30.8658 14.97C30.8404 17.3093 32.8888 18.6129 34.4299 19.3945C36.0178 20.191 36.5506 20.7055 36.5426 21.4126C36.5315 22.5023 35.2723 22.9849 34.1068 23.003C32.0575 23.0357 30.8706 22.4294 29.9242 21.9763L29.185 25.538C30.1377 25.9879 31.894 26.3803 33.7106 26.4C37.9908 26.4 40.7896 24.2189 40.8023 20.8407L40.8046 20.8391ZM51.435 26.1444H55.2008L51.913 9.89579H48.4394C48.0678 9.89209 47.7038 10.0037 47.3944 10.2161C47.0851 10.4286 46.8448 10.732 46.7046 11.0871L40.5911 26.1427H44.8681L45.7145 23.7174H50.9388L51.435 26.1444ZM46.8912 20.3835L49.0349 14.2826L50.2679 20.3835H46.8912ZM29.7558 9.89579L26.3886 26.1435H22.3164L25.6836 9.89579H29.7558Z" fill="#1434CB"/>
</g>
<defs>
<clipPath id="clip0_7970_2288">
<rect width="50.4" height="16.8" fill="white" transform="translate(4.80078 9.60001)"/>
</clipPath>
</defs>
</svg>
