<svg width="60" height="36" viewBox="0 0 60 36" fill="none" xmlns="http://www.w3.org/2000/svg">
<rect x="0.5" y="0.5" width="59" height="35" rx="5.5" fill="white" stroke="#D4D8DA"/>
<path d="M28.376 14.8232H26.4395V27.1601H28.376V14.8232Z" fill="#FEC93E"/>
<path d="M28.7072 16.838H26.1068C25.9152 16.838 25.7598 16.6823 25.7598 16.4903V15.3094H29.0543V16.4903C29.0543 16.6824 28.8989 16.838 28.7072 16.838Z" fill="#F7A738"/>
<path d="M29.0543 26.7024H25.7598V25.5215C25.7598 25.3294 25.9152 25.1738 26.1068 25.1738H28.7072C28.8989 25.1738 29.0543 25.3294 29.0543 25.5215V26.7024Z" fill="#F7A738"/>
<path d="M33.5655 14.8232H31.6289V27.1601H33.5655V14.8232Z" fill="#FEC93E"/>
<path d="M33.8967 16.838H31.2963C31.1046 16.838 30.9492 16.6823 30.9492 16.4903V15.3094H34.2438V16.4903C34.2438 16.6824 34.0884 16.838 33.8967 16.838Z" fill="#F7A738"/>
<path d="M34.2438 26.7024H30.9492V25.5215C30.9492 25.3295 31.1046 25.1738 31.2963 25.1738H33.8967C34.0884 25.1738 34.2438 25.3295 34.2438 25.5215V26.7024Z" fill="#F7A738"/>
<path d="M38.753 14.8232H36.8164V27.1601H38.753V14.8232Z" fill="#FEC93E"/>
<path d="M39.0842 16.838H36.4838C36.2921 16.838 36.1367 16.6823 36.1367 16.4903V15.3094H39.4313V16.4903C39.4313 16.6824 39.2759 16.838 39.0842 16.838Z" fill="#F7A738"/>
<path d="M39.4313 26.7024H36.1367V25.5215C36.1367 25.3294 36.2921 25.1738 36.4838 25.1738H39.0842C39.2759 25.1738 39.4313 25.3294 39.4313 25.5215V26.7024Z" fill="#F7A738"/>
<path d="M23.1865 14.8232H21.25V27.1601H23.1865V14.8232Z" fill="#FEC93E"/>
<path d="M23.5178 16.838H20.9174C20.7257 16.838 20.5703 16.6823 20.5703 16.4903V15.3094H23.8648V16.4903C23.8648 16.6824 23.7095 16.838 23.5178 16.838Z" fill="#F7A738"/>
<path d="M23.8648 26.7024H20.5703V25.5215C20.5703 25.3295 20.7257 25.1738 20.9174 25.1738H23.5178C23.7095 25.1738 23.8648 25.3295 23.8648 25.5215V26.7024Z" fill="#F7A738"/>
<path d="M40.8354 15.3095H19.1694C18.982 15.3095 18.8301 15.1573 18.8301 14.9696V13.5175C18.8301 13.3298 18.982 13.1776 19.1694 13.1776H40.8353C41.0227 13.1776 41.1746 13.3298 41.1746 13.5175V14.9696C41.1747 15.1573 41.0228 15.3095 40.8354 15.3095Z" fill="#FEC93E"/>
<path d="M40.8342 13.1776H38.4922V15.3095H40.8342C41.0216 15.3095 41.1735 15.1572 41.1735 14.9695V13.5175C41.1735 13.3298 41.0216 13.1776 40.8342 13.1776Z" fill="#EFB635"/>
<path d="M41.3842 28.1812H18.6172V27.2222C18.6172 26.9351 18.8495 26.7024 19.1361 26.7024H40.8654C41.152 26.7024 41.3843 26.9351 41.3843 27.2222V28.1812H41.3842Z" fill="#FEC93E"/>
<path d="M40.8656 26.7024H38.7031V28.1812H41.3845V27.2222C41.3845 26.9351 41.1522 26.7024 40.8656 26.7024Z" fill="#EFB635"/>
<path d="M42.1433 29.66H17.8599C17.7614 29.66 17.6816 29.58 17.6816 29.4814V28.701C17.6816 28.4139 17.9139 28.1812 18.2005 28.1812H41.8028C42.0893 28.1812 42.3216 28.4139 42.3216 28.701V29.4814C42.3216 29.58 42.2418 29.66 42.1433 29.66Z" fill="#F7A738"/>
<path d="M41.8024 28.1812H39.6523V29.66H42.143C42.2415 29.66 42.3213 29.58 42.3213 29.4814V28.701C42.3213 28.4139 42.089 28.1812 41.8024 28.1812Z" fill="#E8932E"/>
<path d="M30.0153 6.38235L17.8209 12.7909C17.7533 12.8264 17.7109 12.8966 17.7109 12.973V13.6293C17.7109 13.7429 17.8029 13.8349 17.9162 13.8349H42.0884C42.2018 13.8349 42.2937 13.7429 42.2937 13.6293V12.9712C42.2937 12.8957 42.2524 12.8262 42.1861 12.7903L30.3625 6.38452C30.2544 6.32594 30.1242 6.32512 30.0153 6.38235Z" fill="#F7A738"/>
<path d="M42.1855 12.7903L30.3619 6.38454C30.2538 6.32596 30.1236 6.32509 30.0147 6.38232L27.9004 7.49345L39.6053 13.835H42.0878C42.2012 13.835 42.2931 13.7429 42.2931 13.6292V12.9712C42.2931 12.8957 42.2518 12.8262 42.1855 12.7903Z" fill="#E8932E"/>
</svg>
